<svg xmlns="http://www.w3.org/2000/svg" viewBox="0 0 200 160"><style>@media (prefers-color-scheme:dark){.i{fill:#fff}}</style><path d="M7.5 6 70 56V45.8L22.8 8h154.4L126 49v10.2L192.5 6H7.5z" class="i"/><path d="M184 0H16C7 0 0 7 0 16v88c0 9 7 16 16 16h66v-8H16c-4 0-8-4-8-8V16c0-4 4-8 8-8h168c4 0 8 4 8 8v88c0 4-4 8-8 8h-56v8h56c9 0 16-7 16-16V16c0-9-7-16-16-16Z" class="i"/><path d="M87.6 134.7c-3-10.3-4.1-36.1-5-48-2.4-5-7.4-5.9-11.5-10.3-5.5-4.5-8.1-11.6-2.6-16.3 1.6-1.1 3-1.3 4-3 2-3.5-.7-7.6 1.6-11.5 3.1-6 9-4 13.8-3 1 .2 2-.1 2.7-1 1.8-2.3 3-5.3 5.8-7 5-3.1 10.2.6 13.1 4.7 4.1 5 11.1 5.9 14 11.4 3.5 10.2-2.3 21-3.1 30.8-2 20.3 6.5 40.5 14.5 59 1.3 3.2 6.1 1.4 5-1.8-.8-2-2.2-4.3-2.8-7-4.5-12-9.4-23-11-36.3-4.4-18.3 11.4-37.3-1-52-5-4.9-8-3.5-11.5-7.5-7-10.4-17.5-10.5-25.5-.9-1.8 2.1-5.5.4-7.7 1-8.7.1-13 8.2-13 16.2 0 1.6-1.3 2.7-2.3 3.5a17.1 17.1 0 0 0-4.7 7.9C57.7 74.5 69 82 76.4 87.8c1.4 1.1 1.3 3.2 1.3 4.9.3 20 3.1 39.4 8 57.1 2.2 6.6 1.7 8.8 4 10 2.1 1 4.3-1.1 3.6-3.3-2.4-8-3.6-12.3-5.7-21.8Z" class="i"/></svg>